<svg width="35" height="40" viewBox="0 0 35 40" fill="none" xmlns="http://www.w3.org/2000/svg">
<path d="M14.5703 22.8906C14.5703 24.3984 13.4766 24.875 12.1328 24.875H8.60937V20.7422H12.2031C13.6562 20.75 14.5703 21.3516 14.5703 22.8906ZM13.9688 16.4609C13.9688 15.0781 12.8984 14.75 11.7109 14.75H8.61719V18.25H11.9531C13.1328 18.25 13.9688 17.7344 13.9688 16.4609ZM24.3047 18.2734C22.875 18.2734 21.9219 19.1641 21.8281 20.5938H26.6875C26.5547 19.1484 25.8047 18.2734 24.3047 18.2734ZM35 6.25V33.75C35 35.8203 33.3203 37.5 31.25 37.5H3.75C1.67969 37.5 0 35.8203 0 33.75V6.25C0 4.17969 1.67969 2.5 3.75 2.5H31.25C33.3203 2.5 35 4.17969 35 6.25ZM21.2266 14.4531H27.3047V12.9766H21.2266V14.4531ZM17.8672 23.0703C17.8672 21.1875 16.9766 19.5625 15.1328 19.0391C16.4766 18.3984 17.1797 17.6562 17.1797 16.1484C17.1797 13.1641 14.9531 12.4375 12.3828 12.4375H5.3125V27.4375H12.5859C15.3125 27.4219 17.8672 26.1172 17.8672 23.0703ZM29.6875 21.9141C29.6875 18.7031 27.8047 16.0234 24.4062 16.0234C21.0937 16.0234 18.8516 18.5078 18.8516 21.7734C18.8516 25.1563 20.9844 27.4766 24.4062 27.4766C27 27.4766 28.6797 26.3125 29.4922 23.8203H26.8594C26.5703 24.75 25.4063 25.2344 24.5 25.2344C22.75 25.2344 21.8359 24.2109 21.8359 22.4766H29.6641C29.6719 22.2969 29.6875 22.1016 29.6875 21.9141Z" fill="#141414"/>
</svg>
