<svg width="35" height="40" viewBox="0 0 35 40" fill="none" xmlns="http://www.w3.org/2000/svg">
<path d="M3.28125 3C1.46973 3 0 4.95964 0 7.375C0 8.7513 0.485352 10.0456 1.3125 10.875L16.1875 25.75C16.9668 26.5247 18.0332 26.5247 18.8125 25.75L33.6875 10.875C34.5146 10.0456 35 8.7513 35 7.375C35 4.95964 33.5303 3 31.7188 3H3.28125ZM0 13.2083V32.1667C0 35.3841 1.96191 38 4.375 38H30.625C33.0381 38 35 35.3841 35 32.1667V13.2083L20.125 28.0833C18.5664 29.6419 16.4336 29.6419 14.875 28.0833L0 13.2083Z" fill="#141414"/>
</svg>
